<?xml version="1.0" encoding="UTF-8"?>
<svg width="32px" height="32px" viewBox="0 0 32 32" version="1.1" xmlns="http://www.w3.org/2000/svg" xmlns:xlink="http://www.w3.org/1999/xlink">
    <!-- Generator: sketchtool 56.3 (101010) - https://sketch.com -->
    <title>18664553-FDAE-4E28-A32F-49B1DEE5F101</title>
    <desc>Created with sketchtool.</desc>
    <g id="Desktop" stroke="none" stroke-width="1" fill="none" fill-rule="evenodd">
        <g id="Annonce-detail-jdc-Non-participant" transform="translate(-433.000000, -1523.000000)">
            <g id="Expand_left_bloc" transform="translate(266.000000, 645.000000)">
                <g id="Social_btns" transform="translate(77.000000, 842.000000)">
                    <g id="facebook_btn" transform="translate(90.000000, 36.000000)">
                        <rect id="Rectangle" stroke="#3B5998" stroke-width="1.93939394" x="0.96969697" y="0.96969697" width="29.7511283" height="29.0909091" rx="14.5454545"></rect>
                        <path d="M20.6829358,6.50647384 L20.6829358,9.36362011 L18.9837996,9.36362011 C17.6526292,9.36362011 17.4037111,10.002149 17.4037111,10.9220635 L17.4037111,12.9675205 L20.5747106,12.9675205 L20.1526322,16.1709875 L17.4037111,16.1709875 L17.4037111,24.385283 L14.0920189,24.385283 L14.0920189,16.1709875 L11.3322753,16.1709875 L11.3322753,12.9675205 L14.0920189,12.9675205 L14.0920189,10.6082103 C14.0920189,7.87011183 15.7695101,6.37660356 18.2154004,6.37660356 C19.384233,6.37660356 20.3907277,6.46318375 20.6829358,6.50647384 Z" id="" fill="#3B5998" fill-rule="nonzero"></path>
                    </g>
                </g>
            </g>
        </g>
    </g>
</svg>