<?xml version="1.0" encoding="UTF-8"?>
<svg width="25px" height="32px" viewBox="0 0 25 32" version="1.1" xmlns="http://www.w3.org/2000/svg" xmlns:xlink="http://www.w3.org/1999/xlink">
    <!-- Generator: Sketch 53 (72520) - https://sketchapp.com -->
    <title>Group</title>
    <desc>Created with Sketch.</desc>
    <g id="Symbols" stroke="none" stroke-width="1" fill="none" fill-rule="evenodd">
        <g id="nav/D_Header-menu-Home" transform="translate(-16.000000, -12.000000)" fill="#CC6D14">
            <g id="Group-38" transform="translate(16.000000, 12.000000)">
                <g id="Group" transform="translate(0.000049, 0.362840)">
                    <path d="M20.933059,11.7090441 C20.77824,10.6063217 20.4904229,9.66432926 20.0530286,8.82953078 C19.4989714,7.77182735 18.7129295,6.83178173 17.7168457,6.03567526 C16.8963048,5.37985777 16.0006705,4.91068667 15.0545676,4.64093762 C14.4450438,4.4670669 13.8427124,4.34186538 13.26464,4.2687399 C12.999619,4.23515815 12.7322819,4.21848895 12.4638476,4.21848895 C12.0775314,4.21848895 11.6891429,4.25316576 11.302461,4.3223977 C10.3524571,4.49249656 9.60810667,4.70931785 8.96018286,5.00425321 C7.85560381,5.50688439 6.89438476,6.23704408 6.02179048,7.23634446 C5.59402667,7.72632165 5.22550857,8.26995663 4.9265981,8.85216195 C4.55210667,9.58122659 4.28306286,10.421622 4.10398476,11.4215308 C3.94855619,12.289181 3.95794286,13.1680251 4.13275429,14.108314 C4.25161143,14.7477057 4.45860571,15.4178806 4.78409143,16.2178806 C5.26000762,17.3867931 5.95096381,18.4988844 6.95850667,19.7176829 C7.44234667,20.30293 7.94374095,20.8907323 8.42855619,21.4593102 C8.61824,21.6816068 8.80792381,21.9039034 8.9969981,22.1266867 C9.80449524,23.0778045 10.6126019,24.028314 11.4205867,24.9788236 L11.791299,25.4147779 C12.6603581,26.4371962 13.529661,27.4596144 14.3992076,28.481911 C14.5431771,28.6510365 14.6876343,28.8197969 14.8366019,28.993911 L14.9672838,29.146489 L15.9444724,27.9599338 C15.9005867,27.9076144 15.8593829,27.8585802 15.8174476,27.8101544 L15.4300343,27.3637361 C15.206461,27.1063977 14.9827657,26.8489376 14.7602895,26.5905042 C13.9369448,25.6334243 13.1139657,24.6761011 12.2928152,23.7171962 L12.0071924,23.3838121 C11.3473219,22.6135004 10.6651429,21.8170289 9.99917714,21.0291962 L9.62968381,20.5926334 C9.02052571,19.873181 8.3905219,19.1291505 7.79026286,18.3809832 C7.12502857,17.5517817 6.58962286,16.6585802 6.19867429,15.7263217 C5.89854476,15.0107627 5.60865524,14.2325422 5.51990857,13.3919034 C5.36850286,11.9570137 5.66180571,10.5767551 6.39164952,9.2895764 C7.05115429,8.12650416 7.98555429,7.21091481 9.1687619,6.56848135 C10.4559543,5.86971329 11.8543238,5.59850416 13.3243733,5.76324941 C14.38848,5.88224561 15.3949257,6.2514015 16.3157943,6.86000986 C17.6622324,7.75029123 18.6105295,8.96397945 19.1343543,10.4677361 C19.5618743,11.695295 19.6286781,12.9321011 19.3329371,14.1435992 C19.2241981,14.5885574 19.0602362,15.0241467 18.9016381,15.4453787 L18.8614095,15.5523293 C18.4850895,16.5541848 17.891901,17.5340175 17.0477105,18.5479186 C16.952381,18.6625346 16.8558324,18.7772722 16.7598933,18.8917665 L17.7665829,20.0140783 C17.7809676,19.9961924 17.7954743,19.9778197 17.809859,19.9600555 C18.1993448,19.4749452 18.5673752,19.016968 18.9188267,18.5340479 C19.9294171,17.1455156 20.5908724,15.591873 20.8851505,13.916314 C21.0171733,13.1651049 21.0332648,12.4224129 20.933059,11.7090441" id="Fill-1"></path>
                    <path d="M20.2883657,5.51738477 C20.6660267,5.91622887 21.0068724,6.34792469 21.3012724,6.80066994 C21.4966857,7.10095891 21.6621105,7.43178781 21.8220495,7.75178781 C21.9057981,7.91933154 21.9896686,8.08699694 22.0780495,8.25174218 C22.44608,8.93797792 22.6373486,9.67823648 22.7758324,10.3117878 C22.8818895,10.7975064 22.9390629,11.3019627 22.9842895,11.7367004 C23.0676724,12.5380388 23.0056229,13.394495 22.7832686,14.5136433 C22.6374705,15.2476966 22.3623314,15.9594836 22.0929219,16.625765 C22.0375771,16.7627688 21.9786971,16.9052479 21.917501,17.0501604 L23.4191238,18.648822 C23.6030781,18.2595901 23.7844724,17.8345863 23.9694019,17.3583582 C24.2256457,16.6981604 24.4132571,16.1496585 24.5600305,15.6325483 C24.674499,15.2289589 24.7517867,14.8106471 24.8265143,14.4060844 C24.8452876,14.3042441 24.864061,14.2024038 24.8834438,14.1009285 C24.9173333,13.9229209 24.9389105,13.7418715 24.9598781,13.5666623 C24.9692648,13.4873315 24.9787733,13.4080007 24.989379,13.3289133 L24.9904762,11.5461604 L24.989379,11.530708 C24.9788952,11.448092 24.9693867,11.3653544 24.96,11.2823734 C24.9390324,11.0988905 24.9174552,10.9090806 24.8829562,10.7227992 L24.8449219,10.51413 C24.7747048,10.1267232 24.7020495,9.72617564 24.5937981,9.33962051 C24.4362971,8.77663952 24.2567314,8.24322507 24.0599771,7.75422127 C23.8415238,7.21155967 23.6209981,6.75625929 23.3856,6.36216043 C22.985021,5.69149884 22.649661,5.20066994 22.2980876,4.77067754 C21.88288,4.2629361 21.4090362,3.79339998 20.9507962,3.33919465 L20.8592457,3.24854827 C20.6032457,2.99461671 20.3015314,2.73630492 19.9096076,2.43552926 C19.6063086,2.20289047 19.3024,2.00139998 19.0062933,1.83628971 L18.8374552,1.74199313 C18.3633676,1.47686766 17.8731886,1.20273838 17.3630171,0.991149027 C16.922941,0.808639521 16.4577524,0.673825833 16.0079238,0.543514046 C15.8793143,0.506160434 15.7507048,0.469050168 15.6227048,0.430601499 C14.4746057,0.0868752628 13.2305676,-0.0517102885 11.9238705,0.0171566316 C11.4160152,0.0444113845 10.870979,0.114008343 10.2083048,0.236533057 C9.60463238,0.347985529 9.06983619,0.480000738 8.57319619,0.639757392 C7.98110476,0.830418989 7.48153905,1.03361291 7.04585143,1.26101975 C6.28589714,1.65730872 5.6832,2.0166091 5.14913524,2.39148363 C4.46037333,2.87513382 3.8528,3.48130872 3.29886476,4.06412241 C2.77321143,4.61724789 2.28912762,5.25165093 1.77529905,6.06101975 C1.56379429,6.39428211 1.39361524,6.75698933 1.22916571,7.10765093 L1.19320381,7.18430492 C1.16028952,7.25414522 1.12676571,7.3241072 1.09336381,7.39394751 C0.937691429,7.71832773 0.776777143,8.05378021 0.67608381,8.40529351 C0.472868571,9.11489047 0.305737143,9.84614522 0.143969524,10.553187 L0.0800914286,10.8326699 C0.0427885714,10.994495 0.0305980952,11.1599703 0.0187733333,11.3199703 C0.0134095238,11.3912707 0.00816761905,11.4625711 0.000609523809,11.5332631 L-3.87245791e-13,13.3127308 L0.0437638095,13.6201985 C0.0748495238,13.8345863 0.106057143,14.0492175 0.1408,14.2631186 C0.316952381,15.34613 0.557226667,16.2199855 0.896609524,17.0132935 C0.966460952,17.1763353 1.03472762,17.3401072 1.10311619,17.5037574 C1.26976,17.9027232 1.44201143,18.315438 1.6334019,18.712457 C1.88891429,19.2428296 2.15929905,19.735362 2.4369981,20.1765483 C2.77357714,20.7111794 3.15172571,21.2572479 3.56120381,21.7996661 C4.04126476,22.4357726 4.5464381,23.0502213 5.03503238,23.6442289 C5.43817143,24.1345711 5.85423238,24.6273467 6.25664,25.1039399 C6.4128,25.2887612 6.56896,25.4737042 6.72463238,25.6587688 C6.92992,25.9029665 7.13557333,26.1467992 7.34110476,26.3906319 C7.70755048,26.8248829 8.07387429,27.2592555 8.43836952,27.6952099 C8.93659429,28.2910426 9.46712381,28.926784 9.99521524,29.5729893 C10.3932343,30.060168 10.8824381,30.6130502 11.4934248,31.0205331 C11.8072076,31.2298106 12.140739,31.3348144 12.4823162,31.3348144 C12.7586743,31.3348144 13.0403962,31.2660692 13.3213867,31.1282137 C13.3853867,31.096822 13.4421943,31.0574 13.4970514,31.0193163 C13.5209448,31.0027688 13.54496,30.9859779 13.5697067,30.9699171 L13.6813714,30.8976433 L13.5566629,30.737765 C13.5313067,30.705035 13.5102171,30.6776585 13.4881524,30.6510121 L12.181821,29.0833772 C10.9752076,27.6348601 9.76847238,26.1863429 8.55990857,24.7392859 C8.27696762,24.4006699 7.99122286,24.0644874 7.7056,23.7280616 C7.20493714,23.1387992 6.68732952,22.5293391 6.1950781,21.9175673 C5.55983238,21.1279095 5.00796952,20.3886243 4.50791619,19.6572479 C4.08112762,19.0330654 3.71248762,18.4055977 3.41223619,17.7920007 C3.1028419,17.1599095 2.81307429,16.459073 2.50026667,15.5866775 C2.20086857,14.7517574 2.03264,13.8295977 1.98607238,12.7677574 C1.94364952,11.7977802 2.06116571,10.8132023 2.33545143,9.84139998 L2.37433905,9.70281443 C2.46369524,9.3829361 2.55622095,9.05198553 2.6906819,8.75096652 C2.95972571,8.14929351 3.22901333,7.56355967 3.56400762,7.01444941 C3.83646476,6.56778781 4.17999238,6.10798553 4.64505905,5.5672707 C4.88131048,5.2927764 5.15742476,5.03957488 5.4245181,4.7947688 C5.52557714,4.70217564 5.62663619,4.60946081 5.72586667,4.51552926 C6.16899048,4.09624408 6.68220952,3.72879161 7.25113905,3.42314903 C7.36073143,3.36438097 7.47641905,3.30938477 7.58832762,3.25621367 C7.71669333,3.19525549 7.84932571,3.13222887 7.97720381,3.06141519 C8.58514286,2.72486766 9.25269333,2.51924028 9.83064381,2.35291329 C9.96998095,2.31276119 10.1116343,2.28574979 10.2615771,2.25715663 C10.364221,2.23768895 10.4669867,2.2180996 10.5685333,2.19425169 C11.44576,1.98801595 12.4000305,1.93959009 13.4851048,2.04581062 C14.6149181,2.15628971 15.5704076,2.39805397 16.4060648,2.7850958 C17.0631314,3.0892783 17.5574552,3.33250264 18.0086248,3.57365853 C18.3030248,3.73098173 18.5635352,3.90862431 18.7828419,4.10147602 C19.2830171,4.54156728 19.8113524,5.01353686 20.2883657,5.51738477" id="Fill-34"></path>
                    <path d="M19.8550918,20.5632494 L17.3784747,23.6092114 L15.9117166,21.9285422 C14.748867,20.5962228 13.5861394,19.2636601 12.4262156,17.9287855 C12.1360823,17.5949148 11.8474118,17.2489985 11.5682499,16.914641 C11.3880747,16.6987931 11.2080213,16.4831886 11.0263832,16.2688007 C10.5009737,15.6492418 10.093568,15.1057285 9.81318705,14.4668236 C9.52671086,13.8142912 9.43211276,13.2728464 9.51525181,12.7627931 C9.71602895,11.5306106 10.4023528,10.7043293 11.555328,10.3068236 C12.6262613,9.93742431 13.6127147,10.1402532 14.4866499,10.9094699 C15.2556251,11.5862152 15.588547,12.4382912 15.4762728,13.4422152 C15.3954499,14.1638578 15.076669,14.8628692 14.4732404,15.6420631 C14.3766918,15.7665346 14.276608,15.8879642 14.1744518,16.0096372 L15.5000442,17.4873559 C15.6616899,17.2976677 15.8191909,17.1107779 15.9710842,16.9178045 C16.9967909,15.6144433 17.4800213,14.3176524 17.4482042,12.9532114 C17.4333318,12.3077361 17.2937509,11.6897589 17.0336061,11.1164357 C16.5214842,9.98816195 15.6822918,9.14752317 14.5391909,8.61800226 C13.7520518,8.25359161 12.8638537,8.13021519 11.8233966,8.24215435 C11.1744975,8.31187298 10.571069,8.51226842 10.0299337,8.8382304 C8.8467261,9.55062583 8.06629181,10.5541848 7.7103299,11.8211658 C7.52491276,12.4812418 7.4796861,13.1373026 7.57586895,13.770854 C7.76189562,14.9964661 8.3221699,16.1360555 9.28850895,17.2547171 C10.1099032,18.2053483 10.9337356,19.1540327 11.7585432,20.1018654 L11.812547,20.164162 C12.4419413,20.8873863 13.092669,21.6354319 13.7382766,22.3663217 C14.5055451,23.2351886 15.2752518,24.1017437 16.0449585,24.9682988 L16.8735451,25.9015308 C16.9777737,26.0189452 17.0826118,26.135873 17.1943985,26.2603445 L17.4690499,26.5668388 L17.5966842,26.3930897 C17.6171642,26.3644966 17.6348404,26.3395536 17.6543451,26.316314 L18.2836175,25.5698502 C18.5254766,25.2833102 18.7673356,24.9966486 19.008707,24.7097437 C19.5146118,24.1085574 20.0196632,23.5067627 20.5244709,22.9048464 C20.6044404,22.8094547 20.6839223,22.7135764 20.7635261,22.6176981 C20.8990842,22.4541696 21.0348861,22.2907627 21.1731261,22.1293026 L19.8550918,20.5632494 Z" id="Fill-36"></path>
                </g>
            </g>
        </g>
    </g>
</svg>