<?xml version="1.0" encoding="UTF-8"?>
<svg width="156px" height="40px" viewBox="0 0 156 40" version="1.1" xmlns="http://www.w3.org/2000/svg" xmlns:xlink="http://www.w3.org/1999/xlink">
    <!-- Generator: sketchtool 56.3 (101010) - https://sketch.com -->
    <title>F09E0652-2529-4E8D-B541-C47F87EF8CF7</title>
    <desc>Created with sketchtool.</desc>
    <g id="Desktop" stroke="none" stroke-width="1" fill="none" fill-rule="evenodd">
        <g id="Annonce-detail-jdc-Non-participant" transform="translate(-144.000000, -2258.000000)" fill="#FFFFFF">
            <g id="Footer" transform="translate(0.000000, 2224.000000)">
                <g id="logo_1_white" transform="translate(144.000000, 34.000000)">
                    <g id="Group-6" transform="translate(0.452061, 0.305697)">
                        <g id="Group-8" transform="translate(0.000000, 0.741084)">
                            <path d="M24.3813469,10.7556461 C23.7077017,9.46719778 22.752,8.32207503 21.5409208,7.35229273 C20.5432737,6.55340435 19.4543252,5.9818805 18.3040148,5.65328393 C17.562931,5.44148217 16.8305919,5.28896711 16.127748,5.19988884 C15.8055248,5.15898101 15.4804854,5.13867531 15.1541121,5.13867531 C14.6844132,5.13867531 14.2121945,5.18091709 13.7420509,5.26525243 C12.5869977,5.47245947 11.6819861,5.73658175 10.894214,6.09585919 C9.55122186,6.70814266 8.38253265,7.59759148 7.32159704,8.81489579 C6.8015044,9.41176471 6.35344511,10.0739972 5.9900176,10.7832145 C5.53469569,11.6713293 5.20758129,12.6950625 4.98985086,13.9131079 C4.80087448,14.9700417 4.81228717,16.0406114 5.02483001,17.1860306 C5.16934136,17.9649097 5.42101343,18.7812876 5.8167522,19.7558129 C6.39539046,21.1797314 7.23548309,22.5344326 8.46049467,24.01912 C9.04876702,24.7320426 9.65838258,25.4480778 10.2478407,26.1406948 C10.478466,26.4114868 10.7090912,26.6822788 10.9389755,26.9536637 C11.9207633,28.1122742 12.9032923,29.2701436 13.885673,30.428013 L14.3364002,30.9590736 C15.3930375,32.2045391 16.4499713,33.4500046 17.5072015,34.6953219 C17.6822455,34.9013432 17.8578824,35.1069199 18.0390032,35.3190181 L18.1978916,35.5048819 L19.3859972,34.059472 C19.3326392,33.9957388 19.2825419,33.9360074 19.2315553,33.8770171 L18.7605225,33.3332098 C18.4886929,33.0197314 18.2167151,32.7061047 17.9462195,32.3912923 C16.9451635,31.2254192 15.9445521,30.0592497 14.946164,28.8911533 L14.5988921,28.4850394 C13.7965947,27.546679 12.9671737,26.5764521 12.1574655,25.6167485 L11.7082205,25.0849467 C10.9675813,24.208541 10.201597,23.3021955 9.47177767,22.3908106 C8.66295878,21.3807133 8.01199074,20.292654 7.53665956,19.1570171 C7.17174988,18.2853543 6.81929041,17.3373599 6.71138861,16.3133302 C6.52730338,14.5654099 6.88391292,12.8840389 7.77128671,11.3160537 C8.57313942,9.89924965 9.70922094,8.78391848 11.1478129,8.00133395 C12.7128337,7.15012506 14.4130283,6.81974988 16.2003742,7.02043539 C17.4941584,7.16539138 18.717836,7.61508106 19.8374655,8.35646132 C21.4745197,9.44096341 22.6274979,10.9194257 23.2643854,12.7512367 C23.7841816,14.2465956 23.8654044,15.7532191 23.5058305,17.2290134 C23.3736211,17.7710421 23.1742696,18.3016582 22.9814396,18.8147846 L22.932528,18.9450672 C22.4749829,20.165484 21.7537601,21.3590736 20.727359,22.594164 C20.6114535,22.7337842 20.4940658,22.8735526 20.3774192,23.0130245 L21.6013932,24.380176 C21.6188828,24.3583881 21.6365206,24.3360074 21.6540102,24.3143678 C22.1275628,23.7234275 22.5750292,23.1655396 23.0023381,22.5772673 C24.2310551,20.8858175 25.0352793,18.9932376 25.3930746,16.9521445 C25.5535933,16.0370542 25.5731579,15.132339 25.4513238,14.2633441 C25.2630885,12.9200556 24.9131487,11.7725614 24.3813469,10.7556461 Z" id="Fill-1"></path>
                            <path d="M25.8990125,8.28417601 C26.136604,8.64997499 26.3377341,9.05297638 26.5321945,9.44278648 C26.6340195,9.64688096 26.7359926,9.85112367 26.8434497,10.0518092 C27.2909162,10.8877517 27.5234683,11.7895025 27.6918425,12.5612673 C27.8207911,13.1529486 27.8903048,13.7674553 27.9452932,14.2970338 C28.0466735,15.2731894 27.9712311,16.3164873 27.7008837,17.6797851 C27.5236165,18.5739768 27.1890912,19.4410449 26.8615322,20.2526799 C26.7942418,20.419572 26.7226531,20.5931339 26.6482483,20.76966 L28.4739824,22.7170801 C28.6976415,22.2429347 28.9181881,21.7252135 29.1430329,21.1450931 C29.4545845,20.3408689 29.6826901,19.6727077 29.8611431,19.0427865 C30.0003187,18.5511515 30.0942881,18.0415822 30.185145,17.5487615 C30.2079704,17.424704 30.2307957,17.3006466 30.2543622,17.1770338 C30.2955665,16.9601927 30.3218008,16.7396461 30.3472941,16.526214 C30.3587068,16.4295767 30.3702677,16.3329393 30.3831626,16.2365984 L30.3844965,14.0649264 L30.3831626,14.0461028 C30.3704159,13.9454636 30.358855,13.8446762 30.3474423,13.7435924 C30.3219491,13.5200815 30.2957147,13.2888634 30.2537693,13.0619435 L30.2075257,12.8077517 C30.1221528,12.3358296 30.0338157,11.8479 29.9021992,11.3770153 C29.7107031,10.6912163 29.4923798,10.041434 29.2531579,9.44575081 C28.9875535,8.78470403 28.7194294,8.23007689 28.4332228,7.75000278 C27.9461825,6.93303196 27.5384382,6.33512552 27.110981,5.81132747 C26.6061547,5.1928189 26.0300361,4.62085039 25.4728893,4.0675572 L25.3615785,3.95713571 C25.0503233,3.64780732 24.6834868,3.33314312 24.2069699,2.96675127 C23.8382066,2.68336082 23.4687022,2.43791385 23.1086836,2.2367837 L22.9034034,2.1219157 C22.3269884,1.79895137 21.7310088,1.46501899 21.1107216,1.20727003 C20.5756591,0.984944882 20.0100639,0.820720704 19.463144,0.661980547 C19.3067754,0.616477999 19.1504067,0.571271885 18.9947791,0.524435387 C17.5988736,0.10572302 16.0863214,-0.062947661 14.4975859,0.0207948124 C13.8801149,0.0539953682 13.2174377,0.138775359 12.4117314,0.288029643 C11.6777619,0.423796202 11.027535,0.584611394 10.4236999,0.779220009 C9.70381102,1.01147568 9.09641871,1.25899768 8.56669199,1.53601482 C7.64270866,2.01875683 6.90992497,2.45644094 6.26058731,2.9130968 C5.42316258,3.50225845 4.68445021,4.24067439 4.01095322,4.9506327 C3.37184252,5.62442612 2.78327374,6.39722835 2.15854006,7.38316628 C1.90138397,7.78913201 1.69447337,8.23096619 1.49452895,8.65812691 L1.450805,8.75150347 C1.41078648,8.8365799 1.37002686,8.92180454 1.32941547,9.00688096 C1.14014266,9.40202686 0.944496526,9.81066049 0.822069477,10.2388587 C0.574992126,11.1032589 0.371786938,11.9940417 0.175103289,12.8553293 L0.0974377026,13.1957832 C0.0520833719,13.3929115 0.0372616952,13.5944863 0.0228846688,13.7893914 C0.0163631311,13.8762464 0.0099898101,13.9631014 0.000800370542,14.0492154 L5.92867068e-05,16.2168856 L0.0532691061,16.5914294 C0.0910643817,16.8525873 0.129007874,17.1140417 0.171249653,17.3746068 C0.385422881,18.6938842 0.677558129,19.758377 1.09019361,20.7247503 C1.17512182,20.9233608 1.25812321,21.1228606 1.34127281,21.3222121 C1.54388513,21.8082149 1.75331542,22.3109662 1.98601575,22.7945975 C2.29667809,23.4406744 2.62542288,24.0406559 2.96306068,24.5780899 C3.37228717,25.2293543 3.83205558,25.8945512 4.3299157,26.5553015 C4.91359333,27.3301788 5.52780361,28.0786735 6.12185642,28.8022677 C6.61200926,29.3995813 7.11787309,29.9998592 7.60713664,30.5804243 C7.79700232,30.8055655 7.98686799,31.030855 8.17614081,31.2562927 C8.42573784,31.5537638 8.67577953,31.8507902 8.925673,32.1478166 C9.3712126,32.6768022 9.81660398,33.2059361 10.2597721,33.7369968 C10.865534,34.4628143 11.5105734,35.2372469 12.1526484,36.0244261 C12.6365762,36.6178861 13.2313701,37.291383 13.9742325,37.787761 C14.3557425,38.0426938 14.7612635,38.1706049 15.1765669,38.1706049 C15.5125743,38.1706049 15.8551033,38.0868624 16.1967429,37.9189328 C16.2745567,37.8806929 16.3436258,37.8326707 16.4103233,37.7862788 C16.4393738,37.7661214 16.4685725,37.7456674 16.4986605,37.7261028 L16.634427,37.6380621 L16.4828013,37.4433052 C16.4519722,37.4034349 16.4263307,37.3700862 16.3995035,37.3376267 L14.8112126,35.4280019 C13.344163,33.6634812 11.8769653,31.8989606 10.4075442,30.1362186 C10.0635331,29.7237314 9.71611302,29.3142084 9.36884113,28.9043891 C8.76011487,28.1865753 8.13078648,27.4441575 7.53228717,26.6989236 C6.7599296,25.7369968 6.08895229,24.8364317 5.48096711,23.9455007 C4.96206021,23.1851487 4.51385271,22.4207948 4.14879481,21.6733377 C3.77262066,20.9033516 3.4203094,20.049623 3.03998518,18.9869088 C2.6759648,17.9698453 2.47142566,16.8465104 2.41480686,15.5530227 C2.36322742,14.3714386 2.50610838,13.1720686 2.83959611,11.9882612 L2.88687726,11.8194423 C2.99552015,11.4297805 3.10801667,11.0266308 3.27149977,10.6599426 C3.59861417,9.92701065 3.92602501,9.21349514 4.33332469,8.54459287 C4.66458916,8.00048912 5.08226401,7.44037795 5.64771098,6.78170264 C5.93495507,6.44732561 6.27066605,6.13888652 6.59540899,5.84067439 C6.71828069,5.72788143 6.84115239,5.61494025 6.96180083,5.50051691 C7.50056878,4.98976193 8.12456137,4.54214729 8.81628902,4.16982677 C8.9495359,4.09823807 9.09019361,4.03124409 9.2262566,3.96647337 C9.38232886,3.89221677 9.5435887,3.81544048 9.69906809,3.72917832 C10.4382251,3.31921075 11.2498601,3.06872441 11.9525558,2.86611209 C12.1219676,2.81720056 12.2941955,2.78429643 12.4765021,2.74946549 C12.6013006,2.72575081 12.7262473,2.70188791 12.8497119,2.67283742 C13.9162798,2.42161 15.0765206,2.36261973 16.3957981,2.49201297 C17.7694711,2.62659379 18.9311941,2.92110051 19.94722,3.39257805 C20.7461084,3.76311996 21.3471274,4.05940528 21.8956776,4.35317091 C22.2536211,4.54481519 22.5703604,4.76121167 22.8370023,4.99613525 C23.4451357,5.53223529 24.0875072,6.10716813 24.6674794,6.72093377 C25.1266549,7.20678833 25.541069,7.73266142 25.8990125,8.28417601 Z" id="Fill-3"></path>
                            <path d="M24.1406874,25.0491524 L21.1295155,28.7596109 L19.3461714,26.7122927 C17.9323316,25.0893191 16.5186401,23.4660491 15.1083576,21.8399629 C14.7556017,21.4332561 14.4046244,21.0118759 14.065208,20.6045762 C13.8461436,20.3416396 13.6272274,20.0789995 13.4063844,19.8178416 C12.7675702,19.0631218 12.2722297,18.4010375 11.9313312,17.6227513 C11.5830218,16.8278648 11.4680056,16.1683001 11.5690894,15.5469755 C11.8132024,14.0459843 12.6476628,13.0394442 14.049497,12.55522 C15.3515813,12.1052339 16.5509514,12.3523113 17.6135174,13.2893377 C18.5484687,14.1137193 18.9532487,15.1516813 18.8167411,16.3746179 C18.7184734,17.2536915 18.3308865,18.1051969 17.5972135,19.054377 C17.4798258,19.2060028 17.3581399,19.3539231 17.2339342,19.5021399 L18.8456434,21.3022325 C19.0421788,21.0711626 19.2336748,20.8435016 19.4183529,20.6084298 C20.6654488,19.0207318 21.2529801,17.4410375 21.2142955,15.7789347 C21.1962131,14.9926447 21.0265049,14.2398518 20.7102103,13.5414544 C20.0875516,12.1670403 19.0672274,11.1430107 17.6773988,10.4979713 C16.7203631,10.0540621 15.6404558,9.90377026 14.3754257,10.0401297 C13.5864678,10.1250579 12.8527948,10.3691709 12.1948606,10.7662436 C10.7562686,11.6340528 9.8073849,12.8565447 9.37459194,14.3999259 C9.14915424,15.2040019 9.09416582,16.0031867 9.21110885,16.7749514 C9.43728763,18.2679389 10.1184919,19.6561371 11.2934062,21.0188421 C12.2920908,22.1768597 13.2937397,23.3325058 14.2965743,24.4871144 L14.3622344,24.5630014 C15.1274775,25.4440019 15.9186586,26.3552385 16.7036146,27.2455767 C17.636491,28.3039926 18.5723316,29.3595924 19.5081723,30.4151922 L20.5156017,31.5520148 C20.642327,31.695044 20.7697934,31.8374803 20.9057082,31.9891061 L21.2396406,32.3624641 L21.3948235,32.1508106 C21.4197239,32.1159796 21.4412154,32.0855952 21.4649301,32.0572858 L22.230025,31.1479759 C22.5240871,30.7989254 22.8181491,30.4497267 23.1116183,30.1002316 C23.7267179,29.3678925 24.34078,28.6348124 24.9545456,27.9015841 C25.0517758,27.7853821 25.1484132,27.6685873 25.2451987,27.5517925 C25.4100157,27.3525892 25.5751292,27.153534 25.743207,26.9568504 L24.1406874,25.0491524 Z" id="Fill-6"></path>
                        </g>
                        <g id="Group-33" transform="translate(41.648912, 0.000000)">
                            <path d="M2.87386383,18.4500232 C2.0232478,18.1043817 1.33848634,17.585623 0.819727652,16.8937471 C0.300968967,16.2021677 0.027509032,15.3653358 -5.92867068e-05,14.3831033 C-5.92867068e-05,14.2586012 0.0415896248,14.1514405 0.124442798,14.0614729 C0.207592404,13.9715053 0.318013895,13.9264474 0.456448356,13.9264474 L2.46938027,13.9264474 C2.78730523,13.9264474 2.98813895,14.0995646 3.07099213,14.4452061 C3.18156183,15.1646503 3.47577212,15.6973414 3.95288189,16.0429829 C4.43013988,16.3889208 5.03516072,16.5617415 5.76853729,16.5617415 C6.6261195,16.5617415 7.28657341,16.2816119 7.75019546,15.7213525 C8.21352107,15.1612413 8.44548031,14.3761371 8.44548031,13.3661881 L8.44548031,6.72607689 L1.41111255,6.72607689 C1.27252987,6.72607689 1.15484576,6.67775822 1.05820843,6.58082446 C0.961422881,6.48418712 0.913104215,6.35968504 0.913104215,6.2073182 L0.913104215,4.73404354 C0.913104215,4.58197314 0.961422881,4.46102825 1.05820843,4.37091246 C1.15484576,4.2810931 1.27252987,4.2360352 1.41111255,4.2360352 L10.935522,4.2360352 C11.0874442,4.2360352 11.2083891,4.2846503 11.2986531,4.38128763 C11.3883242,4.4782214 11.4333821,4.60272348 11.4333821,4.75479389 L11.4333821,13.4491894 C11.4333821,14.597573 11.1980139,15.5864752 10.7278703,16.4164891 C10.2574303,17.246503 9.59001019,17.8793886 8.72546179,18.3151459 C7.86076517,18.7509032 6.84770357,18.9687818 5.68568411,18.9687818 C4.66180269,18.9687818 3.72462807,18.7956647 2.87386383,18.4500232" id="Fill-1"></path>
                            <path d="M22.3480204,15.7317573 C22.8876776,15.1786123 23.1781825,14.3276999 23.2196832,13.1793164 C23.2471033,12.3494507 23.2610357,11.7891913 23.2610357,11.4985382 C23.2610357,11.1806132 23.2471033,10.6203539 23.2196832,9.81790829 C23.1781825,8.68375359 22.8805632,7.83625012 22.32727,7.27584252 C21.7738286,6.71573136 21.0477147,6.43545345 20.1486318,6.43545345 C19.2356165,6.43545345 18.5022399,6.71573136 17.9489467,7.27584252 C17.3956535,7.83625012 17.1051487,8.68375359 17.0774321,9.81790829 C17.063648,10.2194275 17.05683,10.7795387 17.05683,11.4985382 C17.05683,12.20405 17.063648,12.7644576 17.0774321,13.1793164 C17.1051487,14.3139157 17.3919481,15.1611227 17.9387198,15.7213821 C18.4850468,16.2816415 19.2215359,16.5617712 20.1486318,16.5617712 C21.0751348,16.5617712 21.8085113,16.2851987 22.3480204,15.7317573 M15.7288078,17.5370375 C14.677358,16.5825215 14.1239166,15.1646799 14.06878,13.2832163 C14.0548476,12.8819935 14.0480296,12.2944623 14.0480296,11.5194368 C14.0480296,10.7309236 14.0548476,10.1362779 14.06878,9.7349069 C14.1239166,7.89524039 14.6912904,6.48406855 15.7703085,5.50183604 C16.8491783,4.51975174 18.3086688,4.02856137 20.1486318,4.02856137 C21.9745141,4.02856137 23.4304474,4.51975174 24.5165799,5.50183604 C25.6022677,6.48406855 26.1730505,7.89524039 26.2284836,9.7349069 C26.2559037,10.5373525 26.269836,11.1324428 26.269836,11.5194368 C26.269836,11.892943 26.2559037,12.4810672 26.2284836,13.2832163 C26.1730505,15.1646799 25.6163483,16.5825215 24.5579324,17.5370375 C23.4998129,18.4915535 22.029799,18.9688115 20.1486318,18.9688115 C18.2530875,18.9688115 16.7799611,18.4915535 15.7288078,17.5370375" id="Fill-4"></path>
                            <path d="M30.3990514,17.5369782 C29.361534,16.5826105 28.8427754,15.1372006 28.8427754,13.2001556 L28.8427754,4.75476424 C28.8427754,4.60269384 28.8875368,4.47833997 28.9776526,4.38125799 C29.067472,4.28462066 29.1884169,4.23600556 29.3407837,4.23600556 L31.2498157,4.23600556 C31.4018861,4.23600556 31.5262399,4.28462066 31.6233219,4.38125799 C31.7199592,4.47833997 31.7685743,4.60269384 31.7685743,4.75476424 L31.7685743,13.2001556 C31.7685743,14.2931061 32.0279537,15.116302 32.5467124,15.669447 C33.0654711,16.2230366 33.8021084,16.4994609 34.7566244,16.4994609 C35.7111403,16.4994609 36.4477777,16.2230366 36.9665364,15.669447 C37.485295,15.116302 37.7446744,14.2931061 37.7446744,13.2001556 L37.7446744,4.75476424 C37.7446744,4.60269384 37.7929931,4.47833997 37.8899268,4.38125799 C37.9864159,4.28462066 38.1110662,4.23600556 38.2634331,4.23600556 L40.1723168,4.23600556 C40.3245354,4.23600556 40.4454803,4.28462066 40.5355961,4.38125799 C40.6254155,4.47833997 40.6704734,4.60269384 40.6704734,4.75476424 L40.6704734,13.2001556 C40.6704734,15.1372006 40.1549755,16.5826105 39.1245725,17.5369782 C38.0938731,18.4914942 36.644906,18.9687522 34.7773747,18.9687522 C32.8959111,18.9687522 31.4365688,18.4914942 30.3990514,17.5369782" id="Fill-6"></path>
                            <path d="M49.5929893,10.9176026 C50.4230032,10.9176026 51.0455137,10.7345549 51.4605206,10.3678666 C51.8753793,10.0013265 52.083031,9.46507828 52.083031,8.75956647 C52.083031,8.05405465 51.8753793,7.51143307 51.4605206,7.1306642 C51.0455137,6.75048819 50.4230032,6.56017786 49.5929893,6.56017786 L46.7086911,6.56017786 L46.7086911,10.9176026 L49.5929893,10.9176026 Z M43.9281445,18.6159815 C43.8312107,18.5194924 43.7828921,18.40166 43.7828921,18.2633738 L43.7828921,4.75474942 C43.7828921,4.60282723 43.8276535,4.47832515 43.9177693,4.38124317 C44.0074405,4.28460584 44.1285336,4.23599074 44.2809004,4.23599074 L49.6552404,4.23599074 C51.3566207,4.23599074 52.6880519,4.63024734 53.6496823,5.41876054 C54.610868,6.20742195 55.0918314,7.3277925 55.0918314,8.78031681 C55.0918314,9.79041408 54.8496452,10.6374729 54.3655692,11.3222344 C53.8811969,12.007144 53.2035498,12.5017434 52.331887,12.8058842 L55.3408356,18.0972228 C55.3823363,18.1802242 55.4030866,18.2565558 55.4030866,18.3254766 C55.4030866,18.4499787 55.3580287,18.5538786 55.2682094,18.6367318 C55.1780936,18.7198814 55.077899,18.7612339 54.9673293,18.7612339 L53.0582974,18.7612339 C52.8368615,18.7612339 52.6640408,18.709358 52.5395387,18.6057545 C52.4150366,18.5018546 52.3041704,18.3669773 52.2075331,18.2011227 L49.5514887,13.2832904 L46.7086911,13.2832904 L46.7086911,18.2633738 C46.7086911,18.40166 46.660076,18.5194924 46.5634386,18.6159815 C46.4665049,18.7129152 46.3418546,18.7612339 46.1899324,18.7612339 L44.2809004,18.7612339 C44.142466,18.7612339 44.0247818,18.7129152 43.9281445,18.6159815 L43.9281445,18.6159815 Z" id="Fill-8"></path>
                            <path d="M57.9138194,18.6160408 C57.8168856,18.5195516 57.7685669,18.4017193 57.7685669,18.2632849 L57.7685669,4.75466049 C57.7685669,4.6027383 57.8131802,4.47823622 57.9034442,4.38130245 C57.9931153,4.28466512 58.1142084,4.23590181 58.2665753,4.23590181 L59.8851024,4.23590181 C60.1475943,4.23590181 60.348428,4.35373414 60.4867142,4.58880593 L66.4213136,13.8021084 L66.4213136,4.75466049 C66.4213136,4.6027383 66.466075,4.47823622 66.556339,4.38130245 C66.6461584,4.28466512 66.7669551,4.23590181 66.9194701,4.23590181 L68.704,4.23590181 C68.8559222,4.23590181 68.9805725,4.28466512 69.077358,4.38130245 C69.1741436,4.47823622 69.2227587,4.6027383 69.2227587,4.75466049 L69.2227587,18.2423863 C69.2227587,18.3950496 69.1741436,18.5195516 69.077358,18.6160408 C68.9805725,18.7128263 68.8627402,18.761145 68.7246021,18.761145 L67.0854729,18.761145 C66.808604,18.761145 66.6009523,18.6439055 66.4629625,18.4086855 L60.5489653,9.40288652 L60.5489653,18.2632849 C60.5489653,18.4017193 60.5040556,18.5195516 60.414088,18.6160408 C60.3241204,18.7128263 60.2030273,18.761145 60.0511051,18.761145 L58.2665753,18.761145 C58.1279926,18.761145 58.0103085,18.7128263 57.9138194,18.6160408" id="Fill-10"></path>
                            <path d="M76.0077073,2.86642334 C76.0077073,2.75600185 76.0419453,2.66603428 76.111459,2.59681704 L77.8129875,0.542384437 C77.9374896,0.390462251 78.0516165,0.286710514 78.1553682,0.231277443 C78.25912,0.176140806 78.4008152,0.148127837 78.5807503,0.148127837 L80.8217879,0.148127837 C80.9462899,0.148127837 81.0429273,0.18651598 81.1122927,0.262402964 C81.1813617,0.338586383 81.2160445,0.438780917 81.2160445,0.563283001 C81.2160445,0.660216767 81.1813617,0.743218157 81.1122927,0.81228717 L78.5184993,2.9288226 C78.3939972,3.02560815 78.2798703,3.09482538 78.1761186,3.13617786 C78.0723668,3.17782677 77.9443075,3.1984289 77.7922371,3.1984289 L76.3397128,3.1984289 C76.118277,3.1984289 76.0077073,3.08785919 76.0077073,2.86642334 M72.5839,18.6160852 C72.4869662,18.5194479 72.4386475,18.4016156 72.4386475,18.2633293 L72.4386475,4.75470496 C72.4386475,4.60278277 72.483409,4.47828069 72.5735248,4.38134692 C72.6633441,4.28456137 72.784289,4.23594627 72.9366559,4.23594627 L82.0875591,4.23594627 C82.2396295,4.23594627 82.3641315,4.28456137 82.4610653,4.38134692 C82.5575544,4.47828069 82.6063177,4.60278277 82.6063177,4.75470496 L82.6063177,6.14512645 C82.6063177,6.29734507 82.5575544,6.41843817 82.4610653,6.50810931 C82.3641315,6.59837332 82.2396295,6.64298657 82.0875591,6.64298657 L75.2814451,6.64298657 L75.2814451,10.2742974 L81.6310514,10.2742974 C81.7831218,10.2742974 81.9076239,10.3230607 82.0045577,10.419698 C82.101195,10.5166318 82.1498101,10.6411339 82.1498101,10.793056 L82.1498101,12.1004761 C82.1498101,12.2526948 82.101195,12.3737879 82.0045577,12.463459 C81.9076239,12.553723 81.7831218,12.5983363 81.6310514,12.5983363 L75.2814451,12.5983363 L75.2814451,16.3541491 L82.2535618,16.3541491 C82.4056322,16.3541491 82.5301343,16.3993553 82.6270681,16.4890264 C82.7237054,16.5794386 82.7723205,16.7002353 82.7723205,16.8523057 L82.7723205,18.2633293 C82.7723205,18.4155479 82.7237054,18.536641 82.6270681,18.6263122 C82.5301343,18.7165762 82.4056322,18.7611894 82.2535618,18.7611894 L72.9366559,18.7611894 C72.7982214,18.7611894 72.6805373,18.7128708 72.5839,18.6160852" id="Fill-12"></path>
                            <path d="M85.5110848,18.6160408 C85.414151,18.5195516 85.3658323,18.4017193 85.3658323,18.2632849 L85.3658323,4.75466049 C85.3658323,4.6027383 85.4104456,4.47823622 85.5007096,4.38130245 C85.5903807,4.28466512 85.7114738,4.23590181 85.8638407,4.23590181 L95.0145956,4.23590181 C95.1668143,4.23590181 95.2911681,4.28466512 95.3882501,4.38130245 C95.4847392,4.47823622 95.5333543,4.6027383 95.5333543,4.75466049 L95.5333543,6.14508198 C95.5333543,6.29744882 95.4847392,6.4183937 95.3882501,6.50821306 C95.2911681,6.59832886 95.1668143,6.64309032 95.0145956,6.64309032 L88.2084817,6.64309032 L88.2084817,10.2744011 L94.5582362,10.2744011 C94.7101584,10.2744011 94.8346605,10.3230162 94.9317425,10.4196535 C95.0283798,10.5165873 95.0769949,10.6410894 95.0769949,10.7931598 L95.0769949,12.1004317 C95.0769949,12.2526503 95.0283798,12.3737434 94.9317425,12.4634145 C94.8346605,12.5538268 94.7101584,12.5982918 94.5582362,12.5982918 L88.2084817,12.5982918 L88.2084817,16.3541047 L95.1805984,16.3541047 C95.332817,16.3541047 95.4571709,16.3993108 95.5542529,16.4889819 C95.650742,16.5793942 95.6993571,16.7001908 95.6993571,16.8524094 L95.6993571,18.2632849 C95.6993571,18.4155035 95.650742,18.5365966 95.5542529,18.6262677 C95.4571709,18.7166799 95.332817,18.761145 95.1805984,18.761145 L85.8638407,18.761145 C85.725258,18.761145 85.6075739,18.7128263 85.5110848,18.6160408" id="Fill-15"></path>
                            <path d="M6.55713942,36.3634127 C7.70522649,36.3634127 8.53524039,36.1077388 9.0471811,35.5956498 C9.55882538,35.0841538 9.82843168,34.2333895 9.85644465,33.0435053 C9.88386475,32.2133432 9.89794535,31.6945845 9.89794535,31.4872293 C9.89794535,31.2660899 9.88386475,30.7540009 9.85644465,29.9515553 C9.82843168,28.8175489 9.54518944,27.9839778 9.00568041,27.4512867 C8.46617138,26.9188921 7.61540713,26.6522501 6.45338768,26.6522501 L3.9218453,26.6522501 L3.9218453,36.3634127 L6.55713942,36.3634127 Z M1.14129875,38.6253488 C1.04436498,38.5287114 0.995898101,38.4108791 0.995898101,38.2725929 L0.995898101,24.7639685 C0.995898101,24.6120463 1.04065956,24.4875442 1.13092358,24.3906105 C1.22074294,24.2938249 1.34168782,24.2452098 1.49405465,24.2452098 L6.55713942,24.2452098 C10.6376952,24.2452098 12.7199926,26.1268217 12.802994,29.8893043 C12.8305623,30.6917499 12.8444947,31.2314071 12.8444947,31.5078314 C12.8444947,31.7709162 12.8305623,32.3036072 12.802994,33.1057564 C12.7475609,35.0426531 12.2250968,36.4708698 11.2361945,37.3907031 C10.247144,38.3108328 8.7218453,38.770453 6.66089115,38.770453 L1.49405465,38.770453 C1.35547198,38.770453 1.23778786,38.7221343 1.14129875,38.6253488 L1.14129875,38.6253488 Z" id="Fill-17"></path>
                            <path d="M15.7284965,38.6253043 C15.631711,38.5288152 15.5833923,38.4109829 15.5833923,38.2725484 L15.5833923,24.763924 C15.5833923,24.6120019 15.6280056,24.4874998 15.7182696,24.390566 C15.8079407,24.2939287 15.9290338,24.2451654 16.0812524,24.2451654 L25.2320074,24.2451654 C25.384226,24.2451654 25.5087281,24.2939287 25.6058101,24.390566 C25.702151,24.4874998 25.7507661,24.6120019 25.7507661,24.763924 L25.7507661,26.1543455 C25.7507661,26.3067124 25.702151,26.4276572 25.6058101,26.5174766 C25.5087281,26.6075924 25.384226,26.6523539 25.2320074,26.6523539 L18.4260417,26.6523539 L18.4260417,30.2836647 L24.7757962,30.2836647 C24.9277184,30.2836647 25.0522205,30.3322798 25.1493025,30.4289171 C25.2459398,30.5258509 25.2945549,30.6503529 25.2945549,30.8024233 L25.2945549,32.1096952 C25.2945549,32.2619138 25.2459398,32.3830069 25.1493025,32.4726781 C25.0522205,32.5630903 24.9277184,32.6075553 24.7757962,32.6075553 L18.4260417,32.6075553 L18.4260417,36.3633682 L25.3981584,36.3633682 C25.5502288,36.3633682 25.6745827,36.4085743 25.7716647,36.4982455 C25.868302,36.5886577 25.9169171,36.7094544 25.9169171,36.861673 L25.9169171,38.2725484 C25.9169171,38.424767 25.868302,38.5458601 25.7716647,38.6355313 C25.6745827,38.7259435 25.5502288,38.7704085 25.3981584,38.7704085 L16.0812524,38.7704085 C15.942818,38.7704085 15.8251339,38.7220899 15.7284965,38.6253043" id="Fill-19"></path>
                            <path d="M34.4137842,37.5151311 C33.3691524,36.540013 32.8124502,35.1531487 32.743233,33.3548346 C32.7294488,32.9811802 32.7226308,32.3726021 32.7226308,31.5286559 C32.7226308,30.6710736 32.7294488,30.0485632 32.743233,29.6612728 C32.8124502,27.8905271 33.3727096,26.5107772 34.4241593,25.5214303 C35.4753126,24.532528 36.9485873,24.0377805 38.8439833,24.0377805 C40.0750718,24.0377805 41.1472719,24.2488411 42.0602872,24.6708143 C42.9733025,25.0927874 43.682075,25.6703881 44.1870496,26.4033201 C44.6920241,27.1368448 44.9582214,27.9595961 44.9860862,28.8726114 L44.9860862,28.9141121 C44.9860862,29.0249782 44.94088,29.118503 44.8512089,29.1942418 C44.7610931,29.2704252 44.6608986,29.3083687 44.5503289,29.3083687 L42.5375452,29.3083687 C42.3713942,29.3083687 42.2470403,29.2704252 42.1640389,29.1942418 C42.0808893,29.118503 42.0116721,28.9834775 41.9565354,28.78961 C41.749032,27.932176 41.3891616,27.3268587 40.8775174,26.9739546 C40.3655767,26.6211987 39.6876332,26.4448208 38.8439833,26.4448208 C36.8655859,26.4448208 35.835183,27.5517036 35.7521816,29.7648763 C35.7382492,30.1382344 35.7314312,30.7125743 35.7314312,31.4871552 C35.7314312,32.2620324 35.7382492,32.8498601 35.7521816,33.2507865 C35.835183,35.4644039 36.8655859,36.5709903 38.8439833,36.5709903 C39.6739972,36.5709903 40.3483835,36.3946123 40.8671422,36.0418564 C41.3859009,35.6892487 41.749032,35.0842279 41.9565354,34.226201 C42.0116721,34.0327781 42.0808893,33.8979009 42.1640389,33.8215692 C42.2470403,33.7456823 42.3713942,33.7074423 42.5375452,33.7074423 L44.5503289,33.7074423 C44.6746827,33.7074423 44.7818434,33.7490912 44.8719592,33.8319444 C44.9617786,33.9149458 44.9997221,34.0186975 44.9860862,34.1431996 C44.9582214,35.0562149 44.6920241,35.8794108 44.1870496,36.612491 C43.682075,37.3458675 42.9733025,37.9234683 42.0602872,38.3452932 C41.1472719,38.7672663 40.0750718,38.9780306 38.8439833,38.9780306 C36.9349514,38.9780306 35.4581195,38.4903974 34.4137842,37.5151311" id="Fill-21"></path>
                            <path d="M47.6006003,38.6253043 C47.5036665,38.5288152 47.4553478,38.4109829 47.4553478,38.2725484 L47.4553478,24.763924 C47.4553478,24.6120019 47.4999611,24.4874998 47.5902251,24.390566 C47.6798962,24.2939287 47.8009893,24.2451654 47.9533562,24.2451654 L49.8623881,24.2451654 C50.0143103,24.2451654 50.1389606,24.2939287 50.2357462,24.390566 C50.3325317,24.4874998 50.3811468,24.6120019 50.3811468,24.763924 L50.3811468,30.0969115 L56.4402483,30.0969115 L56.4402483,24.763924 C56.4402483,24.6120019 56.4885669,24.4874998 56.5853525,24.390566 C56.6819898,24.2939287 56.7996739,24.2451654 56.9382566,24.2451654 L58.8680389,24.2451654 C59.0201093,24.2451654 59.140906,24.2939287 59.23117,24.390566 C59.3208411,24.4874998 59.3660472,24.6120019 59.3660472,24.763924 L59.3660472,38.2725484 C59.3660472,38.4109829 59.3208411,38.5288152 59.23117,38.6253043 C59.140906,38.7220899 59.0201093,38.7704085 58.8680389,38.7704085 L56.9382566,38.7704085 C56.7996739,38.7704085 56.6819898,38.7220899 56.5853525,38.6253043 C56.4885669,38.5288152 56.4402483,38.4109829 56.4402483,38.2725484 L56.4402483,32.7320574 L50.3811468,32.7320574 L50.3811468,38.2725484 C50.3811468,38.4109829 50.3325317,38.5288152 50.2357462,38.6253043 C50.1389606,38.7220899 50.0143103,38.7704085 49.8623881,38.7704085 L47.9533562,38.7704085 C47.8147735,38.7704085 47.6970894,38.7220899 47.6006003,38.6253043" id="Fill-23"></path>
                            <path d="M65.8400815,33.4584233 L70.5298082,33.4584233 L68.1848708,27.0674646 L65.8400815,33.4584233 Z M61.3995072,38.6460102 C61.3165058,38.5630088 61.2750051,38.4592571 61.2750051,38.334755 L61.3165058,38.1481501 L66.2965892,24.7640278 C66.4347272,24.4183863 66.6837314,24.2452691 67.0436017,24.2452691 L69.3262881,24.2452691 C69.6857138,24.2452691 69.9347179,24.4183863 70.0733006,24.7640278 L75.0532358,38.1481501 L75.0947365,38.334755 C75.0947365,38.4592571 75.0496786,38.5630088 74.9598592,38.6460102 C74.8697434,38.7291598 74.7695489,38.7705123 74.6589792,38.7705123 L72.8121982,38.7705123 C72.5216934,38.7705123 72.3211561,38.6393404 72.2104382,38.3762557 L71.2559222,35.8654636 L65.1139676,35.8654636 L64.1593034,38.3762557 C64.0484372,38.6393404 63.8481964,38.7705123 63.5576915,38.7705123 L61.7109106,38.7705123 C61.5862603,38.7705123 61.4826568,38.7291598 61.3995072,38.6460102 L61.3995072,38.6460102 Z" id="Fill-25"></path>
                            <path d="M78.6635887,38.4178898 C77.7781417,38.0442353 77.1073126,37.5534896 76.6509532,36.9446151 C76.1944456,36.3358888 75.9521112,35.6720259 75.9246911,34.9524335 C75.9246911,34.8418638 75.9661918,34.7416693 76.0490449,34.6517017 C76.1321945,34.5617341 76.2357981,34.5168245 76.3604484,34.5168245 L78.2485818,34.5168245 C78.4008004,34.5168245 78.5251542,34.5515072 78.6222362,34.620428 C78.7187253,34.6899416 78.8088411,34.786579 78.8918425,34.9110811 C79.0301288,35.3815211 79.3449412,35.7757777 79.8359833,36.0937026 C80.3270255,36.4120723 81.0012635,36.5709606 81.8592904,36.5709606 C82.8274423,36.5709606 83.5572617,36.4085151 84.0483038,36.0834757 C84.539346,35.7585845 84.7850894,35.3123038 84.7850894,34.7449301 C84.7850894,34.3714238 84.6605873,34.0603168 84.4114349,33.8113126 C84.162579,33.5621603 83.7855155,33.3444298 83.280541,33.1576767 C82.7754182,32.9709236 82.0252932,32.7460787 81.0292765,32.4831422 C79.3966688,32.0961482 78.1999667,31.5842075 77.4393182,30.9477647 C76.6783733,30.3116183 76.2980491,29.3984548 76.2980491,28.2085706 C76.2980491,27.4064215 76.5191885,26.6905345 76.9622084,26.0609097 C77.4047837,25.4315813 78.0375211,24.9371302 78.860717,24.5772598 C79.6837647,24.217686 80.6418379,24.0377508 81.7347883,24.0377508 C82.8828754,24.0377508 83.8751867,24.2385845 84.7124632,24.6395109 C85.5491468,25.0410301 86.1855896,25.542151 86.6213469,26.1439111 C87.0572524,26.7458194 87.2886188,27.3441704 87.3166318,27.9388161 C87.3166318,28.0496823 87.2751311,28.150025 87.1919815,28.2398444 C87.1089801,28.3298119 87.0052283,28.3745734 86.8807263,28.3745734 L84.9095915,28.3745734 C84.605006,28.3745734 84.3976508,28.2500713 84.2869328,28.0010672 C84.2177156,27.5584919 83.9478129,27.1885428 83.4776693,26.8909236 C83.0073775,26.593749 82.4263678,26.4447911 81.7347883,26.4447911 C80.9736952,26.4447911 80.3756406,26.5900435 79.9397351,26.8805484 C79.504126,27.1710533 79.2860991,27.5931746 79.2860991,28.1463196 C79.2860991,28.5198258 79.3966688,28.8310811 79.6181047,29.0802334 C79.8393923,29.3292376 80.1853302,29.546968 80.655622,29.7337212 C81.1257656,29.9206225 81.8105271,30.1316832 82.7100547,30.366755 C83.9409949,30.6434757 84.9199667,30.9547309 85.6460806,31.3003724 C86.372491,31.6463103 86.9082946,32.0822158 87.2543807,32.6076443 C87.599874,33.1336656 87.7731394,33.8043465 87.7731394,34.620428 C87.7731394,35.5198073 87.527396,36.2979453 87.0363539,36.9548421 C86.5453117,37.6120352 85.8537323,38.1136007 84.9613191,38.4592422 C84.0692024,38.8048837 83.0347976,38.9780009 81.8592904,38.9780009 C80.6141214,38.9780009 79.5488874,38.791396 78.6635887,38.4178898" id="Fill-27"></path>
                            <path d="M92.0058546,38.4178898 C91.1204076,38.0442353 90.4495785,37.5534896 89.9932191,36.9446151 C89.5367114,36.3358888 89.294377,35.6720259 89.2669569,34.9524335 C89.2669569,34.8418638 89.3084576,34.7416693 89.3913108,34.6517017 C89.4744604,34.5617341 89.5780639,34.5168245 89.7027142,34.5168245 L91.5908476,34.5168245 C91.7430662,34.5168245 91.8674201,34.5515072 91.9645021,34.620428 C92.0609912,34.6899416 92.151107,34.786579 92.2341084,34.9110811 C92.3723946,35.3815211 92.687207,35.7757777 93.1782492,36.0937026 C93.6692913,36.4120723 94.3435294,36.5709606 95.2015563,36.5709606 C96.1697082,36.5709606 96.8995276,36.4085151 97.3905697,36.0834757 C97.8816119,35.7585845 98.1273553,35.3123038 98.1273553,34.7449301 C98.1273553,34.3714238 98.0028532,34.0603168 97.7537008,33.8113126 C97.5048448,33.5621603 97.1277814,33.3444298 96.6228069,33.1576767 C96.1176841,32.9709236 95.3675591,32.7460787 94.3715424,32.4831422 C92.7389347,32.0961482 91.5422325,31.5842075 90.7815841,30.9477647 C90.0206392,30.3116183 89.640315,29.3984548 89.640315,28.2085706 C89.640315,27.4064215 89.8614544,26.6905345 90.3044743,26.0609097 C90.7470496,25.4315813 91.3797869,24.9371302 92.2029829,24.5772598 C93.0260306,24.217686 93.9841038,24.0377508 95.0770542,24.0377508 C96.2251413,24.0377508 97.2174525,24.2385845 98.054729,24.6395109 C98.8914127,25.0410301 99.5278555,25.542151 99.9636128,26.1439111 C100.399518,26.7458194 100.630885,27.3441704 100.658898,27.9388161 C100.658898,28.0496823 100.617397,28.150025 100.534247,28.2398444 C100.451246,28.3298119 100.347494,28.3745734 100.222992,28.3745734 L98.2518573,28.3745734 C97.9472719,28.3745734 97.7399166,28.2500713 97.6291987,28.0010672 C97.5599815,27.5584919 97.2900787,27.1885428 96.8199352,26.8909236 C96.3496434,26.593749 95.7686336,26.4447911 95.0770542,26.4447911 C94.3159611,26.4447911 93.7179064,26.5900435 93.2820009,26.8805484 C92.8463918,27.1710533 92.628365,27.5931746 92.628365,28.1463196 C92.628365,28.5198258 92.7389347,28.8310811 92.9603705,29.0802334 C93.1816582,29.3292376 93.5275961,29.546968 93.9978879,29.7337212 C94.4680315,29.9206225 95.152793,30.1316832 96.0523205,30.366755 C97.2832608,30.6434757 98.2622325,30.9547309 98.9883465,31.3003724 C99.7147568,31.6463103 100.25056,32.0822158 100.596647,32.6076443 C100.94214,33.1336656 101.115405,33.8043465 101.115405,34.620428 C101.115405,35.5198073 100.869662,36.2979453 100.37862,36.9548421 C99.8875776,37.6120352 99.1959981,38.1136007 98.303585,38.4592422 C97.4114683,38.8048837 96.3770635,38.9780009 95.2015563,38.9780009 C93.9563872,38.9780009 92.8911533,38.791396 92.0058546,38.4178898" id="Fill-29"></path>
                            <path d="M103.62596,38.6253043 C103.529026,38.5288152 103.480708,38.4109829 103.480708,38.2725484 L103.480708,24.763924 C103.480708,24.6120019 103.525321,24.4874998 103.615585,24.390566 C103.705256,24.2939287 103.826349,24.2451654 103.978716,24.2451654 L113.129471,24.2451654 C113.28169,24.2451654 113.406044,24.2939287 113.503126,24.390566 C113.599615,24.4874998 113.64823,24.6120019 113.64823,24.763924 L113.64823,26.1543455 C113.64823,26.3067124 113.599615,26.4276572 113.503126,26.5174766 C113.406044,26.6075924 113.28169,26.6523539 113.129471,26.6523539 L106.323357,26.6523539 L106.323357,30.2836647 L112.673112,30.2836647 C112.825034,30.2836647 112.949536,30.3322798 113.046618,30.4289171 C113.143255,30.5258509 113.19187,30.6503529 113.19187,30.8024233 L113.19187,32.1096952 C113.19187,32.2619138 113.143255,32.3830069 113.046618,32.4726781 C112.949536,32.5630903 112.825034,32.6075553 112.673112,32.6075553 L106.323357,32.6075553 L106.323357,36.3633682 L113.295474,36.3633682 C113.447692,36.3633682 113.572046,36.4085743 113.669128,36.4982455 C113.765617,36.5886577 113.814233,36.7094544 113.814233,36.861673 L113.814233,38.2725484 C113.814233,38.424767 113.765617,38.5458601 113.669128,38.6355313 C113.572046,38.7259435 113.447692,38.7704085 113.295474,38.7704085 L103.978716,38.7704085 C103.840133,38.7704085 103.722449,38.7220899 103.62596,38.6253043" id="Fill-31"></path>
                        </g>
                    </g>
                </g>
            </g>
        </g>
    </g>
</svg>