<?xml version="1.0" encoding="UTF-8"?>
<svg width="32px" height="32px" viewBox="0 0 32 32" version="1.1" xmlns="http://www.w3.org/2000/svg" xmlns:xlink="http://www.w3.org/1999/xlink">
    <!-- Generator: sketchtool 56.3 (101010) - https://sketch.com -->
    <title>97D81D90-1504-4FFF-8C64-75C701794116</title>
    <desc>Created with sketchtool.</desc>
    <g xmlns="http://www.w3.org/2000/svg" id="Design-Desktop" stroke="none" stroke-width="1" fill="none" fill-rule="evenodd">
        <g id="Annonce-detail-jdc-participant" transform="translate(-478.000000, -1523.000000)" fill="#00ACED" fill-rule="nonzero">
            <g id="Group" transform="translate(265.000000, 645.000000)">
                <g id="Group-11" transform="translate(0.000000, 445.000000)">
                    <g id="Group-2-Copy-3" transform="translate(77.000000, 397.000000)">
                        <g id="Group-13">
                            <g id="twitter_icon" transform="translate(136.000000, 36.000000)">
                                <path d="M15.5151515,0 L16.1753707,0 C24.7441523,0 31.6905222,6.94636994 31.6905222,15.5151515 C31.6905222,24.0839331 24.7441523,31.030303 16.1753707,31.030303 L15.5151515,31.030303 C6.94636994,31.030303 0,24.0839331 0,15.5151515 C0,6.94636994 6.94636994,0 15.5151515,0 Z M15.5151515,1.93939394 C8.01746764,1.93939394 1.93939394,8.01746764 1.93939394,15.5151515 C1.93939394,23.0128354 8.01746764,29.0909091 15.5151515,29.0909091 L16.1753707,29.0909091 C23.6730546,29.0909091 29.7511283,23.0128354 29.7511283,15.5151515 C29.7511283,8.01746764 23.6730546,1.93939394 16.1753707,1.93939394 L15.5151515,1.93939394 Z" id="round"/>
                                <path d="M24.868585,10.7921932 C24.3923939,11.4848348 23.7971551,12.1017186 23.1153361,12.5995547 C23.1261586,12.75107 23.1261586,12.9025854 23.1261586,13.0541007 C23.1261586,17.6753183 19.6088384,23 13.1802593,23 C11.1997375,23 9.35990846,22.4264062 7.81228757,21.4307341 C8.09367319,21.4632016 8.36423628,21.4740242 8.65644442,21.4740242 C10.2906455,21.4740242 11.7949763,20.9220754 12.9962764,19.9805159 C11.4594781,19.9480483 10.1715977,18.9415536 9.72787427,17.5562706 C9.94432475,17.5887381 10.1607752,17.6103832 10.3880482,17.6103832 C10.7019014,17.6103832 11.0157546,17.5670931 11.3079627,17.4913354 C9.70622922,17.1666597 8.50492909,15.7597316 8.50492909,14.0605954 C8.50492909,14.0497729 8.50492909,14.0281278 8.50492909,14.0173053 C8.97029761,14.2770459 9.5114238,14.4393837 10.0850176,14.4610288 C9.14345799,13.8333224 8.52657414,12.7618926 8.52657414,11.5497699 C8.52657414,10.9004185 8.69973452,10.3051797 9.00276518,9.78569853 C10.7235465,11.9069132 13.3101296,13.2921962 16.210566,13.4437116 C16.1564534,13.183971 16.1239858,12.9134079 16.1239858,12.6428448 C16.1239858,10.7164356 17.6824292,9.14716963 19.619661,9.14716963 C20.6261557,9.14716963 21.5352477,9.56924806 22.1737766,10.2510671 C22.9638208,10.0995517 23.7213974,9.80734358 24.3923939,9.4069102 C24.1326533,10.2185995 23.5807046,10.9004185 22.8555955,11.3333194 C23.5590596,11.2575618 24.2408786,11.0627563 24.868585,10.7921932 Z" id="twitter"/>
                            </g>
                        </g>
                    </g>
                </g>
            </g>
        </g>
    </g>
</svg>
